<?xml version="1.0" encoding="UTF-8" standalone="no"?>
<svg
   width="622"
   height="124"
   viewBox="0 0 622 124"
   version="1.1"
   id="svg2"
   sodipodi:docname="cicompoverflow-white.svg"
   inkscape:export-filename="cicompoverflow-white.svg"
   inkscape:export-xdpi="96"
   inkscape:export-ydpi="96"
   xmlns:inkscape="http://www.inkscape.org/namespaces/inkscape"
   xmlns:sodipodi="http://sodipodi.sourceforge.net/DTD/sodipodi-0.dtd"
   xmlns="http://www.w3.org/2000/svg"
   xmlns:svg="http://www.w3.org/2000/svg">
  <defs
     id="defs2" />
  <sodipodi:namedview
     id="namedview2"
     pagecolor="#ffffff"
     bordercolor="#000000"
     borderopacity="0.25"
     inkscape:showpageshadow="2"
     inkscape:pageopacity="0.0"
     inkscape:pagecheckerboard="0"
     inkscape:deskcolor="#d1d1d1" />
  <g
     id="SVGRepo_iconCarrier"
     transform="matrix(4.1205207,0,0,4.1205207,0,-24.723125)"
     style="stroke-width:5.39305">
    <path
       fill="#ccd6dd"
       d="m 34,29.096 c -0.417,-0.963 -0.896,-2.008 -2,-2.008 h -1 c 1.104,0 2,-0.899 2,-2.008 V 8.008 A 2.004,2.004 0 0 0 31,6 H 5 C 3.896,6 3,6.899 3,8.008 V 25.08 c 0,1.109 0.896,2.008 2,2.008 H 4 c -1.104,0 -1.667,1.004 -2,2.008 L 0,33.991 C 0,35.101 0.896,36 2,36 h 32 c 1.104,0 2,-0.899 2,-2.008 z"
       id="path1-3"
       style="stroke-width:5.39305" />
    <path
       fill="#9aaab4"
       d="m 0.008,34.075 0.006,0.057 0.17,0.692 A 1.998,1.998 0 0 0 2,36 h 32 a 2,2 0 0 0 1.992,-1.925 z"
       id="path2-6"
       style="stroke-width:5.39305" />
    <path
       fill="#5dadec"
       d="m 31,24.075 c 0,0.555 -0.447,1.004 -1,1.004 H 6 c -0.552,0 -1,-0.449 -1,-1.004 V 9.013 C 5,8.458 5.448,8.009 6,8.009 h 24 c 0.553,0 1,0.45 1,1.004 z"
       id="path3"
       style="stroke-width:5.39305" />
    <path
       fill="#aebbc1"
       d="m 32.906,31.042 -0.76,-2.175 C 31.907,28.407 31.511,28.03 30.958,28.03 H 5.11 c -0.552,0 -0.906,0.408 -1.156,1.036 l -0.688,1.977 c -0.219,0.596 0.448,1.004 1,1.004 h 7.578 c 0,0 0.937,-0.047 1.103,-0.608 0.192,-0.648 0.415,-1.624 0.463,-1.796 0.074,-0.264 0.388,-0.531 0.856,-0.531 h 8.578 c 0.5,0 0.746,0.253 0.811,0.566 0.042,0.204 0.312,1.141 0.438,1.782 0.111,0.571 1.221,0.586 1.221,0.586 h 6.594 c 0.551,0 1.217,-0.471 0.998,-1.004 z"
       id="path4"
       style="stroke-width:5.39305" />
    <path
       fill="#9aaab4"
       d="m 22.375,33.113 h -7.781 c -0.375,0 -0.538,-0.343 -0.484,-0.675 0.054,-0.331 0.359,-1.793 0.383,-1.963 0.023,-0.171 0.274,-0.375 0.524,-0.375 h 7.015 c 0.297,0 0.49,0.163 0.55,0.489 0.059,0.327 0.302,1.641 0.321,1.941 0.019,0.301 -0.169,0.583 -0.528,0.583 z"
       id="path5"
       style="stroke-width:5.39305" />
  </g>
  <text
     xml:space="preserve"
     style="font-size:56px;font-family:consolas;-inkscape-font-specification:consolas;fill:#000000"
     x="144.85907"
     y="79.327202"
     id="text3"
     inkscape:export-filename="cicompoverflow-white.svg"
     inkscape:export-xdpi="96"
     inkscape:export-ydpi="96"><tspan
       sodipodi:role="line"
       id="tspan3"
       x="144.85907"
       y="79.327202"
       style="font-style:normal;font-variant:normal;font-weight:normal;font-stretch:normal;font-size:56px;font-family:'URW Bookman';-inkscape-font-specification:'URW Bookman';fill:#000000"><tspan
         style="font-style:normal;font-variant:normal;font-weight:300;font-stretch:normal;font-family:'URW Bookman';-inkscape-font-specification:'URW Bookman Light';fill:#000000"
         id="tspan1">CiComp</tspan><tspan
         style="font-style:normal;font-variant:normal;font-weight:600;font-stretch:normal;font-size:56px;font-family:'URW Bookman';-inkscape-font-specification:'URW Bookman Semi-Bold';fill:#000000"
         id="tspan4">Overflow</tspan></tspan></text>
</svg>
